<svg width="86" height="17" viewBox="0 0 86 17" fill="none" xmlns="http://www.w3.org/2000/svg">
<rect x="1" y="1.18994" width="84" height="15" rx="2.5" stroke="#669DF1"/>
<path d="M5.83203 12.6899V4.93945H7.4541V12.6899H5.83203ZM9.33398 12.6899V4.93945H10.6875L14.6782 10.4502L13.5449 9.87549H14.3506V4.93945H15.9028V12.6899H14.5601L10.5586 7.15771L11.6973 7.73242H10.8862V12.6899H9.33398ZM21.4351 10.2461V8.97852H23.4224C23.8879 8.97852 24.2495 8.86035 24.5073 8.62402C24.7687 8.38411 24.8994 8.04395 24.8994 7.60352V7.59277C24.8994 7.15234 24.7687 6.81396 24.5073 6.57764C24.2495 6.34131 23.8879 6.22314 23.4224 6.22314H21.4351V4.93945H23.8198C24.3641 4.93945 24.8403 5.05046 25.2485 5.27246C25.6567 5.49089 25.9736 5.79883 26.1992 6.19629C26.4284 6.59375 26.543 7.05745 26.543 7.5874V7.59814C26.543 8.13167 26.4284 8.59717 26.1992 8.99463C25.9736 9.39209 25.6567 9.70003 25.2485 9.91846C24.8403 10.1369 24.3641 10.2461 23.8198 10.2461H21.4351ZM20.624 12.6899V4.93945H22.2461V12.6899H20.624ZM28.0361 12.6899V4.93945H31.2642C31.8514 4.93945 32.3509 5.03971 32.7627 5.24023C33.1781 5.43717 33.4932 5.72005 33.708 6.08887C33.9264 6.45768 34.0356 6.89632 34.0356 7.40479V7.41553C34.0356 7.91325 33.9121 8.36084 33.665 8.7583C33.4215 9.15218 33.0778 9.43685 32.6338 9.6123L34.2666 12.6899H32.4297L30.9849 9.854C30.9741 9.854 30.9616 9.854 30.9473 9.854C30.9329 9.854 30.9204 9.854 30.9097 9.854H29.6582V12.6899H28.0361ZM29.6582 8.67236H31.0869C31.4915 8.67236 31.8066 8.56494 32.0322 8.3501C32.2614 8.13167 32.376 7.83089 32.376 7.44775V7.43701C32.376 7.06104 32.2596 6.76204 32.0269 6.54004C31.7941 6.31803 31.4736 6.20703 31.0654 6.20703H29.6582V8.67236ZM39.063 12.8887C38.2967 12.8887 37.6343 12.724 37.0757 12.3945C36.5171 12.0615 36.0856 11.5907 35.7812 10.9819C35.4805 10.3732 35.3301 9.65169 35.3301 8.81738V8.80664C35.3301 7.96875 35.4823 7.24723 35.7866 6.64209C36.0946 6.03337 36.5278 5.56429 37.0864 5.23486C37.645 4.90544 38.3039 4.74072 39.063 4.74072C39.8257 4.74072 40.4845 4.90544 41.0396 5.23486C41.5981 5.56429 42.0296 6.03337 42.334 6.64209C42.6383 7.25081 42.7905 7.97233 42.7905 8.80664V8.81738C42.7905 9.65169 42.6383 10.3732 42.334 10.9819C42.0332 11.5907 41.6035 12.0615 41.0449 12.3945C40.4863 12.724 39.8257 12.8887 39.063 12.8887ZM39.063 11.5137C39.4819 11.5137 39.8472 11.4027 40.1587 11.1807C40.4702 10.9587 40.7101 10.6453 40.8784 10.2407C41.0503 9.8361 41.1362 9.36165 41.1362 8.81738V8.80664C41.1362 8.25879 41.0503 7.78434 40.8784 7.3833C40.7101 6.97868 40.4702 6.66715 40.1587 6.44873C39.8472 6.22673 39.4819 6.11572 39.063 6.11572C38.644 6.11572 38.2788 6.22673 37.9673 6.44873C37.6558 6.66715 37.4141 6.97868 37.2422 7.3833C37.0703 7.78434 36.9844 8.25879 36.9844 8.80664V8.81738C36.9844 9.36165 37.0685 9.8361 37.2368 10.2407C37.4087 10.6453 37.6486 10.9587 37.9565 11.1807C38.2681 11.4027 38.6369 11.5137 39.063 11.5137ZM47.7051 12.8887C47.1286 12.8887 46.6112 12.7956 46.1528 12.6094C45.6945 12.4196 45.3042 12.1493 44.9819 11.7983C44.6632 11.4438 44.418 11.016 44.2461 10.5146C44.0742 10.0098 43.9883 9.44222 43.9883 8.81201V8.80127C43.9883 7.97054 44.1387 7.2526 44.4395 6.64746C44.7402 6.03874 45.1663 5.56966 45.7178 5.24023C46.2692 4.90723 46.9191 4.74072 47.6675 4.74072C48.2798 4.74072 48.8276 4.84993 49.311 5.06836C49.7944 5.28678 50.1883 5.59115 50.4927 5.98145C50.8006 6.37174 50.9922 6.82471 51.0674 7.34033L51.0781 7.39404H49.4668L49.4561 7.34033C49.3486 6.95361 49.1374 6.65283 48.8223 6.43799C48.5072 6.22314 48.1222 6.11572 47.6675 6.11572C47.2521 6.11572 46.8923 6.22493 46.5879 6.44336C46.2871 6.6582 46.0544 6.96615 45.8896 7.36719C45.7249 7.76465 45.6426 8.2373 45.6426 8.78516V8.7959C45.6426 9.21484 45.6909 9.59261 45.7876 9.9292C45.8843 10.2622 46.0239 10.5469 46.2065 10.7832C46.3892 11.0195 46.6094 11.2004 46.8672 11.3257C47.125 11.451 47.4132 11.5137 47.7319 11.5137C48.0864 11.5137 48.3997 11.4456 48.6719 11.3096C48.944 11.1735 49.1571 10.9837 49.311 10.7402C49.465 10.4967 49.5474 10.2121 49.5581 9.88623L49.5635 9.74121H47.8877V8.55957H51.1426V9.54248C51.1426 10.0545 51.0638 10.5164 50.9062 10.9282C50.7487 11.34 50.5195 11.6927 50.2188 11.9863C49.918 12.2764 49.5545 12.5002 49.1284 12.6577C48.7059 12.8117 48.2314 12.8887 47.7051 12.8887ZM52.7002 12.6899V4.93945H55.9282C56.5155 4.93945 57.015 5.03971 57.4268 5.24023C57.8421 5.43717 58.1572 5.72005 58.3721 6.08887C58.5905 6.45768 58.6997 6.89632 58.6997 7.40479V7.41553C58.6997 7.91325 58.5762 8.36084 58.3291 8.7583C58.0856 9.15218 57.7419 9.43685 57.2979 9.6123L58.9307 12.6899H57.0938L55.6489 9.854C55.6382 9.854 55.6257 9.854 55.6113 9.854C55.597 9.854 55.5845 9.854 55.5737 9.854H54.3223V12.6899H52.7002ZM54.3223 8.67236H55.751C56.1556 8.67236 56.4707 8.56494 56.6963 8.3501C56.9255 8.13167 57.04 7.83089 57.04 7.44775V7.43701C57.04 7.06104 56.9237 6.76204 56.6909 6.54004C56.4582 6.31803 56.1377 6.20703 55.7295 6.20703H54.3223V8.67236ZM60.3379 12.6899V4.93945H65.4727V6.27686H61.96V8.146H65.2739V9.39209H61.96V11.3525H65.4727V12.6899H60.3379ZM69.9521 12.8887C69.3363 12.8887 68.8009 12.7956 68.3462 12.6094C67.8914 12.4232 67.5334 12.1618 67.272 11.8252C67.0142 11.485 66.8691 11.0858 66.8369 10.6274L66.8315 10.5415H68.3945L68.3999 10.5952C68.4214 10.7886 68.5002 10.9587 68.6362 11.1055C68.7759 11.2487 68.9621 11.3615 69.1948 11.4438C69.4276 11.5262 69.6943 11.5674 69.9951 11.5674C70.2852 11.5674 70.5394 11.5244 70.7578 11.4385C70.9762 11.3525 71.1463 11.2344 71.2681 11.084C71.3934 10.93 71.4561 10.7546 71.4561 10.5576V10.5522C71.4561 10.298 71.3522 10.0939 71.1445 9.93994C70.9404 9.78597 70.5967 9.65885 70.1133 9.55859L69.2969 9.39209C68.4912 9.22738 67.9058 8.95703 67.5405 8.58105C67.1753 8.20508 66.9927 7.72347 66.9927 7.13623V7.13086C66.9927 6.65104 67.1198 6.2321 67.374 5.87402C67.6283 5.51595 67.9774 5.23844 68.4214 5.0415C68.8654 4.84098 69.3739 4.74072 69.9468 4.74072C70.5483 4.74072 71.064 4.83919 71.4937 5.03613C71.9269 5.22949 72.2653 5.49626 72.5088 5.83643C72.7523 6.17301 72.8901 6.55794 72.9224 6.99121L72.9277 7.06104H71.4023L71.3916 6.99658C71.3594 6.81038 71.2806 6.64746 71.1553 6.50781C71.0335 6.36816 70.8688 6.25895 70.6611 6.18018C70.457 6.09782 70.2189 6.05664 69.9468 6.05664C69.6818 6.05664 69.4491 6.09603 69.2485 6.1748C69.048 6.25358 68.8923 6.36458 68.7812 6.50781C68.6702 6.64746 68.6147 6.81396 68.6147 7.00732V7.0127C68.6147 7.26335 68.715 7.46924 68.9155 7.63037C69.1196 7.78792 69.4491 7.91325 69.9038 8.00635L70.7256 8.17285C71.2734 8.28385 71.7192 8.43424 72.063 8.62402C72.4103 8.8138 72.6663 9.05192 72.8311 9.33838C72.9958 9.62484 73.0781 9.97038 73.0781 10.375V10.3804C73.0781 10.8924 72.951 11.3364 72.6968 11.7124C72.4461 12.0848 72.0863 12.3748 71.6172 12.5825C71.1517 12.7866 70.5967 12.8887 69.9521 12.8887ZM77.3857 12.8887C76.7699 12.8887 76.2345 12.7956 75.7798 12.6094C75.325 12.4232 74.967 12.1618 74.7056 11.8252C74.4478 11.485 74.3027 11.0858 74.2705 10.6274L74.2651 10.5415H75.8281L75.8335 10.5952C75.855 10.7886 75.9338 10.9587 76.0698 11.1055C76.2095 11.2487 76.3957 11.3615 76.6284 11.4438C76.8612 11.5262 77.1279 11.5674 77.4287 11.5674C77.7188 11.5674 77.973 11.5244 78.1914 11.4385C78.4098 11.3525 78.5799 11.2344 78.7017 11.084C78.827 10.93 78.8896 10.7546 78.8896 10.5576V10.5522C78.8896 10.298 78.7858 10.0939 78.5781 9.93994C78.374 9.78597 78.0303 9.65885 77.5469 9.55859L76.7305 9.39209C75.9248 9.22738 75.3394 8.95703 74.9741 8.58105C74.6089 8.20508 74.4263 7.72347 74.4263 7.13623V7.13086C74.4263 6.65104 74.5534 6.2321 74.8076 5.87402C75.0618 5.51595 75.411 5.23844 75.855 5.0415C76.299 4.84098 76.8075 4.74072 77.3804 4.74072C77.9819 4.74072 78.4976 4.83919 78.9272 5.03613C79.3605 5.22949 79.6989 5.49626 79.9424 5.83643C80.1859 6.17301 80.3237 6.55794 80.356 6.99121L80.3613 7.06104H78.8359L78.8252 6.99658C78.793 6.81038 78.7142 6.64746 78.5889 6.50781C78.4671 6.36816 78.3024 6.25895 78.0947 6.18018C77.8906 6.09782 77.6525 6.05664 77.3804 6.05664C77.1154 6.05664 76.8826 6.09603 76.6821 6.1748C76.4816 6.25358 76.3258 6.36458 76.2148 6.50781C76.1038 6.64746 76.0483 6.81396 76.0483 7.00732V7.0127C76.0483 7.26335 76.1486 7.46924 76.3491 7.63037C76.5532 7.78792 76.8826 7.91325 77.3374 8.00635L78.1592 8.17285C78.707 8.28385 79.1528 8.43424 79.4966 8.62402C79.8439 8.8138 80.0999 9.05192 80.2646 9.33838C80.4294 9.62484 80.5117 9.97038 80.5117 10.375V10.3804C80.5117 10.8924 80.3846 11.3364 80.1304 11.7124C79.8797 12.0848 79.5199 12.3748 79.0508 12.5825C78.5853 12.7866 78.0303 12.8887 77.3857 12.8887Z" fill="#CECFD2"/>
</svg>
